<svg xmlns="http://www.w3.org/2000/svg" viewBox="0 0 92.59 92.59"><defs><style>.cls-1{fill:#273139;}.cls-2,.cls-3{fill:#fff;}.cls-2{stroke:#273139;}.cls-2,.cls-3,.cls-4,.cls-7{stroke-miterlimit:10;}.cls-3,.cls-4,.cls-5,.cls-7{stroke:#2e343b;}.cls-3,.cls-4,.cls-7{stroke-width:2px;}.cls-4,.cls-5,.cls-7{fill:none;}.cls-4,.cls-5{stroke-linecap:round;}.cls-5{stroke-linejoin:round;}.cls-6{fill:#2e343b;}</style></defs><g id="Camada_2" data-name="Camada 2"><g id="Camada_1-2" data-name="Camada 1"><circle class="cls-1" cx="46.3" cy="46.3" r="46.3"/><circle class="cls-2" cx="46.3" cy="46.3" r="43.77"/><rect class="cls-3" x="18.85" y="18.73" width="54.88" height="55.13" rx="7.09"/><line class="cls-4" x1="36.05" y1="29.68" x2="67.09" y2="29.68"/><path class="cls-5" d="M30.82,27.2c-.4,0-1.21.69-1.21.69s-.74-.69-1.14-.69c-.78,0-1.68,1.08-1.45,1.8a17,17,0,0,0,2.58,2.59s2.33-1.74,2.65-2.6C32.47,28.4,31.59,27.2,30.82,27.2Z"/><rect class="cls-3" x="24.97" y="38.06" width="42.64" height="29.26" rx="7.09"/><path id="Icon_ionic-ios-arrow-back" data-name="Icon ionic-ios-arrow-back" class="cls-6" d="M46.88,53.27l4.95.12c.34,0,.22-.5.22-.84s0-.8-.36-.79l-5.45.3a.6.6,0,0,0-.59.59l-.07,5.51c0,.33.43.32.77.32s.82.1.83-.24"/><path id="Icon_ionic-ios-arrow-back-2" data-name="Icon ionic-ios-arrow-back" class="cls-6" d="M45.72,52.12l-5-.13c-.34,0-.22.51-.21.84s0,.8.35.79l5.45-.29a.62.62,0,0,0,.6-.6l.06-5.5c0-.34-.43-.32-.77-.33s-.82-.1-.82.24"/><g id="Elipse_8" data-name="Elipse 8"><circle class="cls-7" cx="46.3" cy="52.69" r="9.37"/></g></g></g></svg>