<svg xmlns="http://www.w3.org/2000/svg" viewBox="0 0 92.59 92.59"><defs><style>.cls-1{fill:#273139;}.cls-2{fill:#fff;}.cls-2,.cls-3,.cls-4{stroke:#273139;stroke-miterlimit:10;}.cls-3,.cls-4{fill:none;}.cls-3{stroke-width:2px;}</style></defs><g id="Camada_2" data-name="Camada 2"><g id="Camada_1-2" data-name="Camada 1"><circle class="cls-1" cx="46.3" cy="46.3" r="46.3"/><circle class="cls-2" cx="46.3" cy="46.3" r="43.77"/><path class="cls-3" d="M52.8,25.67C48.89,25.67,41,32.41,41,32.41s-7.22-6.74-11.14-6.74c-7.52,0-16.3,10.52-14,17.52C17.52,48.4,41,68.41,41,68.41s22.66-17,25.78-25.28C68.92,37.32,60.33,25.67,52.8,25.67Z"/><path class="cls-1" d="M76.81,59.4l-8.43-8.34-4,4L73,63.69c.92.61,2.06-.5,2.83-1.24S77.59,60.23,76.81,59.4Z"/><circle class="cls-2" cx="53.05" cy="39.38" r="15.19"/><circle class="cls-4" cx="53.05" cy="39.38" r="14.36"/><path id="Caminho_46" data-name="Caminho 46" class="cls-1" d="M46.79,46.13c2.25-1.06,3.82-2.56,6.07-4.89l-.13-.84c-2.57,2.48-5.41,4.83-7.89,5.31C45,46.26,45.69,46.65,46.79,46.13Z"/><path id="Caminho_47" data-name="Caminho 47" class="cls-1" d="M49.34,45.34a23.24,23.24,0,0,0,3.77-3.84l-.25-.26L49,44.09l-.63.51c0-5.37,3.31-7.55,11-11.2C59.93,41.32,55,47.19,49.34,45.34Z"/></g></g></svg>