<svg xmlns="http://www.w3.org/2000/svg" viewBox="0 0 92.59 92.59"><defs><style>.cls-1{fill:#273139;}.cls-2,.cls-5{fill:#fff;}.cls-2,.cls-3,.cls-4{stroke:#273139;}.cls-2,.cls-4{stroke-miterlimit:10;}.cls-3,.cls-4{fill:none;stroke-width:2px;}.cls-3{stroke-linecap:round;stroke-linejoin:round;}</style></defs><g id="Camada_2" data-name="Camada 2"><g id="Camada_1-2" data-name="Camada 1"><circle class="cls-1" cx="46.3" cy="46.3" r="46.3"/><circle class="cls-2" cx="46.3" cy="46.3" r="43.77"/><rect class="cls-3" x="16.65" y="56.33" width="9.64" height="18.75" rx="4.82"/><path class="cls-3" d="M26.28,58.15s.91-.26,10.94-2.08c2.62-.48,10.94,5.34,10.94,5.34s6.53-.62,9.25-.26c1.05.14,2.21,1.69,2.21,1.69s10.12-6.25,13-6a4.55,4.55,0,0,1,3.13,2.86,4.08,4.08,0,0,1-.65,3.39c-4.17,4.43-16,13.63-22,14.85-6.38,1.3-26.7-5.6-26.7-5.6Z"/><path class="cls-3" d="M43.24,68.53S55,69.85,58.09,68.4c3.59-1.72,2.24-4.52,1.43-5.71"/><path class="cls-1" d="M50,49.89,50,56.18c.2.55.16.56,1.11.56s1.06-.17,1.09-.76c0,0-.1-3.34-.18-6.12Z"/><path class="cls-1" d="M57.69,41.93H44.42c-.58,0-.76,0-.76,1s0,.83.57,1L50,44l0,2.64-2.56-.1c-.32,0-.42,0-.42.79s0,.66.31.81l3.49,0H52l2.83,0c.3-.15.31-.12.31-.81s-.1-.78-.42-.79l-2.68.1c0-1,.06-1.91.09-2.64l5.75,0c.55-.18.55-.14.56-1S58.28,42,57.69,41.93Z"/><path class="cls-3" d="M55.19,18.19c-.75,0-2.24,1.28-2.24,1.28s-1.37-1.28-2.12-1.28c-1.43,0-3.1,2-2.67,3.33.32,1,4.78,4.8,4.78,4.8s4.3-3.23,4.9-4.81C58.25,20.41,56.62,18.19,55.19,18.19Z"/><path id="Caminho_48" data-name="Caminho 48" class="cls-1" d="M47.38,53.53a20.86,20.86,0,0,1-3.86-3.82l.1-.37c1.61,1.7,3.82,3.58,4.9,3.93C48.45,53.74,48,53.94,47.38,53.53Z"/><path id="Caminho_49" data-name="Caminho 49" class="cls-1" d="M45.89,53a16.72,16.72,0,0,1-2.55-3.1l.18-.22L46,52l.4.37c.37-4.35-1.5-6.39-6.86-8.14C38.85,50.59,42.21,54.43,45.89,53Z"/><path id="Caminho_46" data-name="Caminho 46" class="cls-1" d="M55.66,51.22c2.16-1,3.66-2.45,5.82-4.69l-.12-.81c-2.47,2.38-5.19,4.64-7.57,5.1C53.91,51.35,54.6,51.72,55.66,51.22Z"/><path id="Caminho_47" data-name="Caminho 47" class="cls-1" d="M58.11,50.47a22.54,22.54,0,0,0,3.61-3.69l-.24-.25-3.72,2.74-.61.49c0-5.16,3.18-7.25,10.55-10.75C68.27,46.61,63.49,52.24,58.11,50.47Z"/><path class="cls-4" d="M60.54,14a13.5,13.5,0,0,0-19.18.22,13.72,13.72,0,0,0,.21,19.31,13.37,13.37,0,0,0,4.12,2.76v6.65H56.43V36.29a13.33,13.33,0,0,0,4.32-3A13.72,13.72,0,0,0,60.54,14Z"/><rect class="cls-5" x="55.25" y="39.99" width="2.35" height="1.93"/></g></g></svg>