<svg xmlns="http://www.w3.org/2000/svg" viewBox="0 0 92.59 92.59"><defs><style>.cls-1{fill:#273139;}.cls-2,.cls-3,.cls-4{fill:#fff;}.cls-2,.cls-4{stroke:#273139;}.cls-2,.cls-3{stroke-miterlimit:10;}.cls-3{stroke:#2e343b;}.cls-3,.cls-4{stroke-width:2px;}.cls-4{stroke-linecap:round;stroke-linejoin:round;}</style></defs><g id="Camada_2" data-name="Camada 2"><g id="Camada_1-2" data-name="Camada 1"><circle class="cls-1" cx="46.3" cy="46.3" r="46.3"/><circle class="cls-2" cx="46.3" cy="46.3" r="43.77"/><rect class="cls-3" x="25.45" y="19.84" width="41.64" height="39.29" rx="7.09"/><path class="cls-4" d="M69.78,41.49,47,56.79,23.08,41.37A6.77,6.77,0,0,0,19,47.6V66a6.77,6.77,0,0,0,6.77,6.76H66.86A6.76,6.76,0,0,0,73.62,66V47.6A6.78,6.78,0,0,0,69.78,41.49Z"/><line class="cls-4" x1="18.97" y1="66.2" x2="38.17" y2="51.51"/><line class="cls-4" x1="73.35" y1="66.94" x2="54.16" y2="52.25"/><path id="Caminho_46" data-name="Caminho 46" class="cls-1" d="M41.2,39.31c2.39-1.12,4.06-2.73,6.46-5.21l-.13-.9c-2.74,2.65-5.77,5.15-8.41,5.67C39.26,39.45,40,39.86,41.2,39.31Z"/><path id="Caminho_47" data-name="Caminho 47" class="cls-1" d="M43.91,38.47a24.33,24.33,0,0,0,4-4.09l-.27-.28-4.13,3-.67.55c0-5.73,3.53-8.06,11.71-11.94C55.2,34.18,49.89,40.44,43.91,38.47Z"/></g></g></svg>