<svg xmlns="http://www.w3.org/2000/svg" viewBox="0 0 69.6 62.56"><defs><style>.cls-1,.cls-4{fill:#fff;}.cls-1,.cls-3,.cls-4,.cls-6,.cls-7,.cls-8{stroke:#2e343b;}.cls-1,.cls-3,.cls-4,.cls-7{stroke-miterlimit:10;}.cls-1,.cls-2,.cls-3,.cls-6,.cls-7{stroke-width:2px;}.cls-2,.cls-3{fill:#2e343b;}.cls-2{stroke:#273139;}.cls-2,.cls-6,.cls-7,.cls-8{stroke-linecap:round;}.cls-2,.cls-6,.cls-8{stroke-linejoin:round;}.cls-5{fill:#273139;}.cls-6,.cls-7,.cls-8{fill:none;}</style></defs><g id="Camada_2" data-name="Camada 2"><g id="Camada_1-2" data-name="Camada 1"><path class="cls-1" d="M49.41,23.46c-9.25-9.86-63.2-7.68-36.69,26.48.26.32.24,8.2.24,8.2a3,3,0,0,0,3,3h0a3,3,0,0,0,3-3V53h2.2v5a3.11,3.11,0,0,0,2.45,3.11,3,3,0,0,0,3.57-3V53h9.85v5A3.11,3.11,0,0,0,39.5,61.1a3,3,0,0,0,3.57-3V53h2.2v5a3.11,3.11,0,0,0,2.45,3.11,3,3,0,0,0,3.58-3v-6h0C51.91,51.62,60.37,35.14,49.41,23.46Z"/><path class="cls-2" d="M20.83,16.47c0-3.14,3-5.68,6.66-5.69v7.53S20.83,19.61,20.83,16.47Z"/><path class="cls-2" d="M12.82,16.66c0-3.14-3-5.69-6.66-5.69V18.5S12.82,19.8,12.82,16.66Z"/><rect class="cls-3" x="12.86" y="57.06" width="6.12" height="4.45" rx="0.48"/><rect class="cls-3" x="21.08" y="57.06" width="6.12" height="4.45" rx="0.48"/><rect class="cls-3" x="37.03" y="57.11" width="6.12" height="4.45" rx="0.48"/><rect class="cls-3" x="45.25" y="57.11" width="6.12" height="4.45" rx="0.48"/><path class="cls-1" d="M28.35,20.17c-.8-4.22-5-7.43-10-7.43h-3c-5,0-9.16,3.21-10,7.43A11.41,11.41,0,0,0,1,29V30C1,36.6,7.11,42,14.64,42h4.52C26.69,42,32.8,36.6,32.8,30V29A11.41,11.41,0,0,0,28.35,20.17Z"/><rect class="cls-4" x="11.05" y="27.81" width="10.94" height="7.3" rx="3.43"/><g id="Grupo_60" data-name="Grupo 60"><g id="Grupo_60-2" data-name="Grupo 60"><ellipse id="Elipse_5" data-name="Elipse 5" class="cls-5" cx="19.44" cy="24.52" rx="0.84" ry="0.87"/></g><g id="Grupo_60-3" data-name="Grupo 60"><ellipse id="Elipse_5-2" data-name="Elipse 5" class="cls-5" cx="14.18" cy="24.51" rx="0.84" ry="0.87"/></g></g><g id="Grupo_60-4" data-name="Grupo 60"><g id="Grupo_60-5" data-name="Grupo 60"><ellipse id="Elipse_5-3" data-name="Elipse 5" class="cls-5" cx="19.03" cy="31.47" rx="0.8" ry="1.4"/></g><g id="Grupo_60-6" data-name="Grupo 60"><ellipse id="Elipse_5-4" data-name="Elipse 5" class="cls-5" cx="14" cy="31.45" rx="0.8" ry="1.4"/></g></g><path class="cls-6" d="M54.34,31.05c8.28-3.19,7.93-5.78,7.94-6,.06-.81.6-2.53.24-3.26C62.05,20.84,60,19,59,19.48s-.66,3.24,0,4c1.19,1.37,5.52,1.73,7.18,1,1.24-.55,2.39-3.53,2.39-4.89"/><rect class="cls-1" x="35.17" y="5.35" width="17.65" height="18.59" rx="3.73" transform="translate(-1.59 23.14) rotate(-28.97)"/><line class="cls-7" x1="43.44" y1="11.65" x2="62.68" y2="1"/><path class="cls-8" d="M39.35,11.91c-.25.13-.51.84-.51.84a2.1,2.1,0,0,0-1,0,1.18,1.18,0,0,0-.28,1.61A11.8,11.8,0,0,0,40.1,15a8,8,0,0,0,.75-2.51A1.22,1.22,0,0,0,39.35,11.91Z"/><line class="cls-7" x1="44.89" y1="14.31" x2="64.12" y2="3.66"/><line class="cls-7" x1="46.49" y1="17.01" x2="65.72" y2="6.36"/></g></g></svg>