<svg xmlns="http://www.w3.org/2000/svg" viewBox="0 0 79.8 65.1"><defs><style>.cls-1,.cls-4{fill:#273139;}.cls-2,.cls-3,.cls-6,.cls-8,.cls-9{fill:none;}.cls-2,.cls-3,.cls-4,.cls-5{stroke:#273139;}.cls-2,.cls-3,.cls-8{stroke-linecap:round;stroke-linejoin:round;}.cls-3,.cls-9{stroke-width:0.75px;}.cls-4,.cls-5,.cls-6,.cls-7,.cls-9{stroke-miterlimit:10;}.cls-4,.cls-5{stroke-width:0.5px;}.cls-5,.cls-7{fill:#fff;}.cls-6,.cls-7,.cls-8,.cls-9{stroke:#2e343b;}</style></defs><g id="Camada_2" data-name="Camada 2"><g id="Camada_1-2" data-name="Camada 1"><ellipse class="cls-1" cx="32.76" cy="58.5" rx="5.84" ry="5.9"/><ellipse class="cls-1" cx="32.76" cy="58.5" rx="5.53" ry="5.58"/><path class="cls-2" d="M.5,33.12s8.74-.14,11.07.71c3.13,1.14,9.3,7.85,9.3,7.85s20.19-.44,24.38,4.64c2.17,2.64,1.37,13.92,1.37,13.92l-6.75.39s1-9.4-7-9.77c-8.85-.41-7.76,9-7.76,9L1.35,59.67"/><line class="cls-2" x1="0.56" y1="41.75" x2="20.49" y2="41.75"/><ellipse class="cls-1" cx="46" cy="47.97" rx="2.17" ry="3.33"/><rect class="cls-2" x="51.27" y="0.5" width="28.03" height="64.1"/><path class="cls-2" d="M69.27,21.48a7,7,0,0,1-8.32.21,7.41,7.41,0,0,0-3.34,6.48H73A7.36,7.36,0,0,0,69.27,21.48Z"/><path class="cls-3" d="M69,23.83c-.21,0-.62.36-.62.36s-.38-.36-.58-.36a.86.86,0,0,0-.74.94,9.1,9.1,0,0,0,1.32,1.36s1.18-.91,1.35-1.36S69.36,23.83,69,23.83Z"/><g id="Elipse_8" data-name="Elipse 8"><ellipse class="cls-4" cx="65.07" cy="14.51" rx="7.12" ry="7.19"/><ellipse class="cls-5" cx="65.07" cy="14.51" rx="6.73" ry="6.79"/></g><path id="Icon_ionic-ios-arrow-back" data-name="Icon ionic-ios-arrow-back" class="cls-1" d="M65.28,18.25l-1.64-.83c-.11-.11-.24.09-.35.21s-.27.26-.15.38l1.94.85a.28.28,0,0,0,.39,0L67.29,18c.12-.11,0-.26-.14-.37s-.23-.32-.35-.21"/><g id="Grupo_60" data-name="Grupo 60"><g id="Grupo_60-2" data-name="Grupo 60"><ellipse id="Elipse_5" data-name="Elipse 5" class="cls-1" cx="67.27" cy="13.33" rx="0.59" ry="0.6"/></g><g id="Grupo_60-3" data-name="Grupo 60"><ellipse id="Elipse_5-2" data-name="Elipse 5" class="cls-1" cx="63.56" cy="13.31" rx="0.59" ry="0.6"/></g></g><rect class="cls-6" x="51.5" y="28.38" width="27.56" height="35.93"/><rect class="cls-7" x="53.89" y="39.27" width="12.64" height="13.42" rx="3.5"/><line class="cls-8" x1="60.9" y1="43.9" x2="76.63" y2="43.9"/><path class="cls-9" d="M58.24,42.63c-.2,0-.61.36-.61.36s-.37-.36-.58-.36c-.39,0-.85.55-.73.92a8.7,8.7,0,0,0,1.31,1.33S58.81,44,59,43.55,58.64,42.63,58.24,42.63Z"/><line class="cls-8" x1="60.88" y1="46.09" x2="76.61" y2="46.09"/><line class="cls-8" x1="60.95" y1="48.35" x2="76.68" y2="48.35"/></g></g></svg>