<svg xmlns="http://www.w3.org/2000/svg" viewBox="0 0 43.09 43.09"><defs><style>.cls-1{fill:#2e343b;}.cls-2{fill:none;stroke:#2e343b;stroke-miterlimit:10;stroke-width:2px;}</style></defs><g id="Camada_2" data-name="Camada 2"><g id="Camada_1-2" data-name="Camada 1"><path id="Icon_ionic-ios-arrow-back" data-name="Icon ionic-ios-arrow-back" class="cls-1" d="M21.54,19.75l-7.49-7.87c-.54-.51-1.13.44-1.64,1s-1.21,1.26-.68,1.77l8.91,8a1.33,1.33,0,0,0,1.85,0l8.64-8.42c.53-.52-.18-1.17-.7-1.7s-1.12-1.43-1.65-.91"/><path id="Icon_ionic-ios-arrow-back-2" data-name="Icon ionic-ios-arrow-back" class="cls-1" d="M21.55,23.33,29,31.21c.53.51,1.12-.44,1.63-1s1.22-1.26.68-1.77l-8.91-8a1.33,1.33,0,0,0-1.84,0L12,28.9c-.53.52.18,1.17.7,1.7s1.12,1.43,1.64.91"/><g id="Elipse_8" data-name="Elipse 8"><circle class="cls-2" cx="21.54" cy="21.54" r="20.54"/></g></g></g></svg>