<svg xmlns="http://www.w3.org/2000/svg" viewBox="0 0 92.59 92.59"><defs><style>.cls-1{fill:#273139;}.cls-2,.cls-5{fill:#fff;}.cls-2,.cls-3,.cls-4{stroke:#273139;}.cls-2,.cls-4{stroke-miterlimit:10;}.cls-3,.cls-4{fill:none;stroke-width:2px;}.cls-3{stroke-linecap:round;stroke-linejoin:round;}</style></defs><g id="Camada_2" data-name="Camada 2"><g id="Camada_1-2" data-name="Camada 1"><circle class="cls-1" cx="46.3" cy="46.3" r="46.3"/><circle class="cls-2" cx="46.3" cy="46.3" r="43.77"/><path class="cls-1" d="M42.42,70.35l.08,9.19c.3.81.24.82,1.63.82s1.55-.25,1.59-1.1c0,0-.15-4.88-.26-8.94Z"/><path class="cls-1" d="M53.7,59.19H34.31c-.85,0-1.11.05-1.1,1.41s0,1.19.82,1.46l8.39.07,0,3.77-3.74-.14c-.47,0-.62,0-.61,1.13s0,1,.45,1.17l5.09.06v0h.87v0h1l4.13,0c.45-.22.45-.17.46-1.17s-.14-1.1-.61-1.13l-3.91.15c0-1.4.08-2.73.12-3.78l8.4-.07c.81-.27.81-.21.82-1.46S54.56,59.22,53.7,59.19Z"/><path class="cls-3" d="M50,24.05c-1.09,0-3.27,1.87-3.27,1.87s-2-1.87-3.09-1.87c-2.09,0-4.53,2.92-3.9,4.86.46,1.45,7,7,7,7s6.3-4.71,7.16-7C54.52,27.28,52.13,24.05,50,24.05Z"/><path id="Caminho_48" data-name="Caminho 48" class="cls-1" d="M38.64,75.67A30.45,30.45,0,0,1,33,70.09l.15-.54c2.35,2.49,5.58,5.23,7.16,5.75C40.19,76,39.6,76.27,38.64,75.67Z"/><path id="Caminho_49" data-name="Caminho 49" class="cls-1" d="M36.46,74.94a24.09,24.09,0,0,1-3.72-4.53l.26-.32,3.57,3.4.59.55c.55-6.35-2.19-9.33-10-11.9C26.18,71.38,31.08,77,36.46,74.94Z"/><path id="Caminho_46" data-name="Caminho 46" class="cls-1" d="M50.73,72.3c3.15-1.48,5.35-3.59,8.5-6.85l-.17-1.19C55.45,67.74,51.48,71,48,71.72,48.18,72.49,49.19,73,50.73,72.3Z"/><path id="Caminho_47" data-name="Caminho 47" class="cls-1" d="M54.31,71.2a32.49,32.49,0,0,0,5.28-5.39l-.35-.36-5.44,4-.89.71c0-7.53,4.65-10.59,15.42-15.71C69.15,65.56,62.17,73.79,54.31,71.2Z"/><path class="cls-4" d="M57.86,17.91a19.72,19.72,0,0,0-28,.32,20,20,0,0,0,6.32,32.25v9.71H51.85v-9.7a19.62,19.62,0,0,0,6.32-4.37A20,20,0,0,0,57.86,17.91Z"/><rect class="cls-5" x="50.14" y="56.36" width="3.43" height="2.83"/></g></g></svg>