<svg xmlns="http://www.w3.org/2000/svg" viewBox="0 0 32.96 33.29"><defs><style>.cls-1{fill:#fff;}</style></defs><g id="Camada_2" data-name="Camada 2"><g id="Camada_1-2" data-name="Camada 1"><path class="cls-1" d="M32.61,30.35l-7.16-7.09-2.61,2.45,7.28,7.36c.78.52,1.44,0,2.1-.57S33.27,31.05,32.61,30.35Z"/><g id="Elipse_8" data-name="Elipse 8"><path class="cls-1" d="M12.9,1A11.9,11.9,0,1,1,1,12.9,11.92,11.92,0,0,1,12.9,1m0-1A12.9,12.9,0,1,0,25.8,12.9,12.91,12.91,0,0,0,12.9,0Z"/><path class="cls-1" d="M12.9,1.7c7.53,0,11,5.83,11,11.2S20.43,24.07,12.91,24.1s-11-5.83-11-11.2S5.37,1.74,12.9,1.7m0-1C-3,.77-3,25,12.9,25.1S28.85.78,12.9.7Z"/></g></g></g></svg>