<svg xmlns="http://www.w3.org/2000/svg" viewBox="0 0 83.13 64.64"><defs><style>.cls-1,.cls-2,.cls-3,.cls-5,.cls-7,.cls-8{fill:none;}.cls-1,.cls-10,.cls-2,.cls-3,.cls-5,.cls-9{stroke:#273139;}.cls-1,.cls-6,.cls-7,.cls-9{stroke-miterlimit:10;}.cls-1,.cls-10,.cls-3,.cls-6,.cls-7,.cls-9{stroke-width:2px;}.cls-10,.cls-2,.cls-3,.cls-5,.cls-7,.cls-8{stroke-linecap:round;}.cls-10,.cls-2,.cls-3,.cls-5,.cls-8{stroke-linejoin:round;}.cls-4{fill:#273139;}.cls-5{stroke-width:3px;}.cls-10,.cls-6,.cls-9{fill:#fff;}.cls-6,.cls-7,.cls-8{stroke:#2e343b;}</style></defs><g id="Camada_2" data-name="Camada 2"><g id="Camada_1-2" data-name="Camada 1"><path class="cls-1" d="M50.92,41.15c1-.86,10.53,3.38,6,10.58"/><circle class="cls-2" cx="48.28" cy="55.64" r="8.43"/><circle class="cls-2" cx="48.28" cy="55.64" r="7.97"/><circle class="cls-3" cx="9.73" cy="55.67" r="7.97"/><path class="cls-4" d="M58.8,56.1a10.14,10.14,0,0,0,.14-1.66,10.55,10.55,0,0,0-21.1,0A10.14,10.14,0,0,0,38,56.1Z"/><path class="cls-4" d="M9,42.8c-3.37-.22-8,5-8.89,8.63l0,.1a1.81,1.81,0,0,0,1.33,2.13l17.86,4.68a1.81,1.81,0,0,0,2.22-1.29v0C21.62,56.34,20.8,43.57,9,42.8Z"/><line class="cls-5" x1="18.68" y1="24.24" x2="6.27" y2="49.18"/><line class="cls-5" x1="57.25" y1="56.09" x2="17.12" y2="55.43"/><path class="cls-5" d="M20.74,54.77c-6.58-16.77,0-25.65,0-25.65"/><path class="cls-3" d="M40.5,37.18c-2,1-6.83-.75-8.59.6-1.21.94-.16,4.7.44,7.84.43,2.28.63,4.23-.43,4.55-1.67.5-8.08.9-9.21,0s-.75-4.25,2.63-4.28c1.57,0-.06-4.69,0-6.25.2-4.74,5.28-7.34,6.42-7.89s-.82-3.62-.82-3.62l-6.25.33s-5.71.19-6.28-1.28c-.38-1,0-2.54.64-2.87,1.38-.67,4.76.09,6.11-.31.88-.27,3.39-1.73,4.08-2.93a17.08,17.08,0,0,0,1-4.13s3.95-2.06,5.26-1.64c1.9.61,4.14,4.11,4.94,6.25C42.15,26.07,44.31,35.19,40.5,37.18Z"/><polygon class="cls-3" points="18.41 23.49 11.85 21.26 11.85 28.14 18.92 27.94 18.41 23.49"/><line class="cls-3" x1="32.09" y1="45.97" x2="25.53" y2="45.97"/><line class="cls-3" x1="57.23" y1="35.9" x2="42.84" y2="35.9"/><line class="cls-3" x1="56.63" y1="41.02" x2="32.45" y2="41.13"/><line class="cls-3" x1="42.31" y1="31.43" x2="31.87" y2="31.43"/><rect class="cls-4" x="10.99" y="21.86" width="6.81" height="6.43" rx="2.63"/><rect class="cls-6" x="50.28" y="19.84" width="17.65" height="18.59" rx="3.73"/><line class="cls-3" x1="56.78" y1="38.61" x2="56.88" y2="41.23"/><line class="cls-7" x1="60.07" y1="26.25" x2="82.06" y2="26.25"/><path class="cls-8" d="M56.36,24.5c-.28,0-.85.49-.85.49s-.53-.49-.81-.49c-.55,0-1.19.76-1,1.27a12.66,12.66,0,0,0,1.83,1.84s1.65-1.24,1.88-1.84C57.54,25.34,56.91,24.5,56.36,24.5Z"/><line class="cls-7" x1="60.04" y1="29.28" x2="82.03" y2="29.28"/><line class="cls-7" x1="60.14" y1="32.42" x2="82.13" y2="32.42"/><ellipse class="cls-9" cx="32.06" cy="9.42" rx="7.33" ry="7.91"/><path class="cls-10" d="M31.24,1a8,8,0,0,0-8,8H33.81v7.55A8,8,0,0,0,31.24,1Z"/></g></g></svg>