<svg xmlns="http://www.w3.org/2000/svg" viewBox="0 0 69.42 53.84"><defs><style>.cls-1{fill:#fff;}.cls-1,.cls-2,.cls-4,.cls-5{stroke:#2e343b;}.cls-1,.cls-2,.cls-4{stroke-miterlimit:10;stroke-width:2px;}.cls-2{fill:#2e343b;}.cls-3{fill:#273139;}.cls-4,.cls-5{fill:none;stroke-linecap:round;}.cls-5{stroke-linejoin:round;}</style></defs><g id="Camada_2" data-name="Camada 2"><g id="Camada_1-2" data-name="Camada 1"><path class="cls-1" d="M61,11.38H19.47a3.73,3.73,0,0,0-3.73,3.73V38.45c0,.51.28,10.16.28,10.16a3.73,3.73,0,0,0,3.73,3.73h0a3.73,3.73,0,0,0,3.73-3.73V42.19h2.73v6.42a3.73,3.73,0,1,0,7.46,0V42.19H45.86v6.42a3.73,3.73,0,0,0,7.46,0V42.19H56v6.42a3.73,3.73,0,0,0,7.46,0V41.22a3.7,3.7,0,0,0,1.25-2.77V15.11A3.73,3.73,0,0,0,61,11.38Z"/><path class="cls-2" d="M9,14.23A8,8,0,0,1,1,6.28H11.55S13.38,14.23,9,14.23Z"/><path class="cls-2" d="M28.41,14.23a8,8,0,0,0,8-7.95H25.83S24,14.23,28.41,14.23Z"/><rect class="cls-1" x="9.38" y="5.32" width="20.48" height="21.9" rx="3.73"/><rect class="cls-1" x="9.19" y="16.74" width="21.23" height="14.17" rx="7.09"/><g id="Grupo_60" data-name="Grupo 60"><g id="Grupo_60-2" data-name="Grupo 60"><ellipse id="Elipse_5" data-name="Elipse 5" class="cls-3" cx="23.7" cy="13.76" rx="1.13" ry="1.17"/></g><g id="Grupo_60-3" data-name="Grupo 60"><ellipse id="Elipse_5-2" data-name="Elipse 5" class="cls-3" cx="16.59" cy="13.73" rx="1.13" ry="1.17"/></g></g><g id="Grupo_60-4" data-name="Grupo 60"><g id="Grupo_60-5" data-name="Grupo 60"><ellipse id="Elipse_5-3" data-name="Elipse 5" class="cls-3" cx="25.89" cy="23.46" rx="1.79" ry="1.17"/></g><g id="Grupo_60-6" data-name="Grupo 60"><ellipse id="Elipse_5-4" data-name="Elipse 5" class="cls-3" cx="14.67" cy="23.43" rx="1.79" ry="1.17"/></g></g><rect class="cls-2" x="15.9" y="47.27" width="7.58" height="5.51" rx="0.48"/><rect class="cls-2" x="26.08" y="47.27" width="7.58" height="5.51" rx="0.48"/><rect class="cls-2" x="45.84" y="47.33" width="7.58" height="5.51" rx="0.48"/><rect class="cls-2" x="56.02" y="47.33" width="7.58" height="5.51" rx="0.48"/><path class="cls-3" d="M22.08.66S22,3.42,22,5.71l2.39-.09.2-5.19C24.46,0,23.78,0,23.32,0S22.11.18,22.08.66Z"/><path class="cls-3" d="M17.07.66s.07,2.76.13,5.05l-2.39-.09L14.61.43C14.69,0,15.37,0,15.82,0S17,.18,17.07.66Z"/><rect class="cls-1" x="36.57" y="17.38" width="17.65" height="18.59" rx="3.73"/><line class="cls-4" x1="46.37" y1="23.79" x2="68.35" y2="23.79"/><path class="cls-5" d="M42.66,22c-.29,0-.86.49-.86.49S41.28,22,41,22c-.54,0-1.18.76-1,1.27a12.18,12.18,0,0,0,1.83,1.84s1.65-1.24,1.87-1.84C43.83,22.88,43.21,22,42.66,22Z"/><line class="cls-4" x1="46.34" y1="26.82" x2="68.33" y2="26.82"/><line class="cls-4" x1="46.44" y1="29.96" x2="68.42" y2="29.96"/></g></g></svg>